<?xml version="1.0"?>
<svg width="640" height="480" xmlns="http://www.w3.org/2000/svg" xmlns:svg="http://www.w3.org/2000/svg">
 <!-- Created with SVG-edit - https://github.com/SVG-Edit/svgedit-->
 <g class="layer">
  <title>Layer 1</title>
  <line fill="none" id="svg_1" stroke="#000000" stroke-width="5" x1="222.5" x2="223.5" y1="356.5" y2="69.5"/>
  <line fill="none" id="svg_2" stroke="#000000" stroke-width="5" x1="222.5" x2="375.5" y1="65.5" y2="63.5"/>
  <line fill="none" id="svg_3" stroke="#000000" stroke-width="5" x1="375.5" x2="375.5" y1="67.5" y2="109.5"/>
  <line fill="none" id="svg_8" stroke="#000000" stroke-width="5" x1="221.5" x2="263.5" y1="118.5" y2="64.5"/>
  <ellipse cx="376.5" cy="141.5" fill="none" id="svg_9" rx="32" ry="35" stroke="#000000" stroke-width="5"/>
  <path d="m360.5,135.5c0,-1.647339 0.027313,-2.545807 0.5,-3.020828c0.521271,-0.523865 0.393555,-1.710388 1.147339,-1.97467c0.804657,-0.28212 2.023376,-0.240234 2.352661,0.34816c0.454803,0.812729 0,1.814011 0,2.704498c0,0.885681 0.201508,1.801498 0,2.590179c-0.219482,0.85907 -1.085327,1.352661 -1.979156,1.352661c-0.899353,0 -1.816071,0.36026 -2.59552,0c-0.595856,-0.275406 -0.425323,-1.425339 -0.425323,-2.283997c0,-0.937332 -0.000061,-1.801331 0,-2.695175c0.000092,-0.899323 0.716003,-1.020828 1.647339,-1.020828c0.852661,0 1.777985,0 2.705322,0c0.868683,0 1.647339,0.085327 1.647339,1.010666c0,0.904007 0,1.705338 0,2.636673c0,0.852661 -0.421844,1.366837 -0.989319,1.927322c-0.43335,0.428024 -1.363342,0.425339 -2.294678,0.425339c-0.88266,0 -1.716003,-0.035995 -1.716003,-0.942841c0,-0.890488 0,-1.704498 0,-2.631821c0,-0.850677 0.352661,-1.425339 1.283997,-1.425339l0.88266,0" fill="none" id="svg_12" stroke="#000000" stroke-width="5"/>
  <path d="m388.5,127.5c0,1.647339 -0.773407,1.883911 -1,2.5c-0.319397,0.868469 -0.098633,1.7892 0,2.721329c0.083801,0.791885 0.636536,1.235413 1.166656,1.778671c0.558807,0.572647 1.054688,1 1.918671,1c0.903992,0 1.871124,0.083786 2.414673,-0.5c0.598083,-0.642349 0.5,-1.585327 0.5,-2.510666c0,-0.904007 0.044495,-1.844254 -0.647339,-1.989334c-0.834503,-0.175003 -1.446564,-0.558868 -2.295502,-0.942841c-0.813049,-0.367722 -1.618591,0.005371 -2.057159,0.517502c-0.426971,0.498596 -1,0.850677 -1,1.778c0,0.868668 0.292175,1.314102 0.914673,1.931335c0.539001,0.534454 1.121338,0.716003 2.028168,0.716003l0.890503,0l0.109497,-0.647339l-0.776184,-0.352661" fill="none" id="svg_13" stroke="#000000" stroke-width="5"/>
  <line fill="none" id="svg_17" stroke="#000000" stroke-width="5" x1="379.5" x2="379.5" y1="178.5" y2="286.5"/>
  <line fill="none" id="svg_18" stroke="#000000" stroke-width="5" x1="380.499999" x2="449.5" y1="224.500001" y2="184.500002"/>
  <line fill="none" id="svg_19" stroke="#000000" stroke-width="5" x1="378.500002" x2="311.500001" y1="224.499999" y2="185.5"/>
  <line fill="none" id="svg_20" stroke="#000000" stroke-width="5" x1="362.5" x2="392.5" y1="159.5" y2="162.5"/>
  <line fill="none" id="svg_21" stroke="#000000" stroke-width="5" x1="378.500001" x2="322.500001" y1="285.500001" y2="319.500002"/>
 </g>
</svg>